<mxfile host="Electron" agent="Mozilla/5.0 (Macintosh; Intel Mac OS X 10_15_7) AppleWebKit/537.36 (KHTML, like Gecko) draw.io/26.2.2 Chrome/134.0.6998.178 Electron/35.1.2 Safari/537.36" version="26.2.2">
  <diagram name="PÃ gina-1" id="oy8qX8HP7gqxA2Tt80Pt">
    <mxGraphModel dx="575" dy="574" grid="1" gridSize="5" guides="1" tooltips="1" connect="1" arrows="1" fold="1" page="1" pageScale="1" pageWidth="827" pageHeight="1169" math="0" shadow="0">
      <root>
        <mxCell id="0" />
        <mxCell id="1" parent="0" />
        <mxCell id="RuAcS0BkeenV3SlfDcj3-12" value="ROUTE" style="whiteSpace=wrap;html=1;align=center;fontSize=10;" parent="1" vertex="1">
          <mxGeometry x="94" y="155" width="94" height="40" as="geometry" />
        </mxCell>
        <mxCell id="RuAcS0BkeenV3SlfDcj3-28" value="FLIGHT" style="whiteSpace=wrap;html=1;align=center;fontSize=10;" parent="1" vertex="1">
          <mxGeometry x="280" y="155" width="94" height="40" as="geometry" />
        </mxCell>
        <mxCell id="RuAcS0BkeenV3SlfDcj3-30" style="edgeStyle=orthogonalEdgeStyle;rounded=0;orthogonalLoop=1;jettySize=auto;html=1;endArrow=oval;endFill=0;" parent="1" source="RuAcS0BkeenV3SlfDcj3-29" target="RuAcS0BkeenV3SlfDcj3-12" edge="1">
          <mxGeometry relative="1" as="geometry" />
        </mxCell>
        <mxCell id="jBT95FDjYHQ6EW9C_Phd-11" value="1" style="edgeLabel;html=1;align=center;verticalAlign=bottom;resizable=0;points=[];labelPosition=center;verticalLabelPosition=top;labelBackgroundColor=none;" parent="RuAcS0BkeenV3SlfDcj3-30" vertex="1" connectable="0">
          <mxGeometry x="-0.5133" y="-1" relative="1" as="geometry">
            <mxPoint x="-13" y="1" as="offset" />
          </mxGeometry>
        </mxCell>
        <mxCell id="RuAcS0BkeenV3SlfDcj3-31" style="edgeStyle=orthogonalEdgeStyle;rounded=0;orthogonalLoop=1;jettySize=auto;html=1;endArrow=oval;endFill=0;entryX=0;entryY=0.5;entryDx=0;entryDy=0;" parent="1" source="RuAcS0BkeenV3SlfDcj3-29" target="RuAcS0BkeenV3SlfDcj3-28" edge="1">
          <mxGeometry relative="1" as="geometry">
            <mxPoint x="447.86" y="415" as="targetPoint" />
          </mxGeometry>
        </mxCell>
        <mxCell id="jBT95FDjYHQ6EW9C_Phd-12" value="N" style="edgeLabel;html=1;align=center;verticalAlign=bottom;resizable=0;points=[];labelPosition=center;verticalLabelPosition=top;labelBackgroundColor=none;" parent="RuAcS0BkeenV3SlfDcj3-31" vertex="1" connectable="0">
          <mxGeometry x="-0.1085" y="1" relative="1" as="geometry">
            <mxPoint x="1" y="-1" as="offset" />
          </mxGeometry>
        </mxCell>
        <mxCell id="RuAcS0BkeenV3SlfDcj3-29" value="&lt;span style=&quot;text-align: left;&quot;&gt;OPERATES IN&lt;/span&gt;" style="shape=rhombus;perimeter=rhombusPerimeter;html=1;align=center;labelPosition=center;verticalLabelPosition=top;verticalAlign=bottom;fontSize=10;" parent="1" vertex="1">
          <mxGeometry x="220" y="160" width="30" height="30" as="geometry" />
        </mxCell>
      </root>
    </mxGraphModel>
  </diagram>
</mxfile>
